<mxfile host="drawio-plugin" agent="Mozilla/5.0 (Macintosh; Intel Mac OS X 10_15_7) AppleWebKit/537.36 (KHTML, like Gecko) Chrome/122.0.0.0 Safari/537.36" modified="2025-01-12T17:31:28.766Z" etag="PIzqGl9BLDq1KFsQSkNf" version="22.1.22" type="embed">
  <diagram name="Page-1" id="oB8MHlwppOr-tE6rPpJF">
    <mxGraphModel dx="844" dy="588" grid="1" gridSize="10" guides="1" tooltips="1" connect="1" arrows="1" fold="1" page="1" pageScale="1" pageWidth="1169" pageHeight="1654" math="0" shadow="0">
      <root>
        <mxCell id="0" />
        <mxCell id="1" parent="0" />
        <mxCell id="2" value="" style="swimlane;startSize=0;fillColor=#d5e8d4;strokeColor=#82b366;" parent="1" vertex="1">
          <mxGeometry x="340" y="320" width="450" height="430" as="geometry" />
        </mxCell>
        <mxCell id="3" value="Order" style="shape=hexagon;perimeter=hexagonPerimeter2;whiteSpace=wrap;html=1;fixedSize=1;fillColor=#d5e8d4;strokeColor=#82b366;" parent="2" vertex="1">
          <mxGeometry x="174.63" y="120" width="120" height="80" as="geometry" />
        </mxCell>
        <mxCell id="4" value="" style="rounded=0;orthogonalLoop=1;jettySize=auto;html=1;dashed=1;endArrow=open;endFill=0;fillColor=#d5e8d4;strokeColor=#82b366;entryX=0;entryY=0.5;entryDx=0;entryDy=0;" parent="2" edge="1">
          <mxGeometry relative="1" as="geometry">
            <mxPoint x="51.38" y="130" as="sourcePoint" />
            <mxPoint x="155.88" y="130" as="targetPoint" />
          </mxGeometry>
        </mxCell>
        <mxCell id="5" value="order.customer-validity" style="edgeLabel;html=1;align=center;verticalAlign=middle;resizable=0;points=[];" parent="4" connectable="0" vertex="1">
          <mxGeometry x="0.066" y="1" relative="1" as="geometry">
            <mxPoint x="-4" y="-9" as="offset" />
          </mxGeometry>
        </mxCell>
        <mxCell id="8" value="" style="rounded=0;orthogonalLoop=1;jettySize=auto;html=1;dashed=1;endArrow=open;endFill=0;fillColor=#d5e8d4;strokeColor=#82b366;exitX=1;exitY=0.25;exitDx=0;exitDy=0;" parent="2" edge="1">
          <mxGeometry relative="1" as="geometry">
            <mxPoint x="308.62857142857155" y="119.99714285714276" as="sourcePoint" />
            <mxPoint x="398.2" y="120.13999999999999" as="targetPoint" />
          </mxGeometry>
        </mxCell>
        <mxCell id="9" value="store.request-articles" style="edgeLabel;html=1;align=center;verticalAlign=middle;resizable=0;points=[];" parent="8" connectable="0" vertex="1">
          <mxGeometry x="0.066" y="1" relative="1" as="geometry">
            <mxPoint x="-8" y="-9" as="offset" />
          </mxGeometry>
        </mxCell>
        <mxCell id="10" value="MongoDB" style="shape=cylinder3;whiteSpace=wrap;html=1;boundedLbl=1;backgroundOutline=1;size=15;fillColor=#d5e8d4;strokeColor=#82b366;" parent="2" vertex="1">
          <mxGeometry x="194.13" y="260" width="81" height="80" as="geometry" />
        </mxCell>
        <mxCell id="11" value="" style="endArrow=open;html=1;rounded=0;fillColor=#d5e8d4;strokeColor=#82b366;startArrow=none;startFill=0;endFill=0;" parent="2" edge="1">
          <mxGeometry width="50" height="50" relative="1" as="geometry">
            <mxPoint x="225.63" y="210" as="sourcePoint" />
            <mxPoint x="225.63" y="250" as="targetPoint" />
          </mxGeometry>
        </mxCell>
        <mxCell id="12" value="stores&lt;br&gt;Order" style="edgeLabel;html=1;align=center;verticalAlign=middle;resizable=0;points=[];" parent="11" vertex="1" connectable="0">
          <mxGeometry x="-0.0534" y="-1" relative="1" as="geometry">
            <mxPoint x="-30" as="offset" />
          </mxGeometry>
        </mxCell>
        <mxCell id="13" value="" style="endArrow=none;html=1;rounded=0;fillColor=#d5e8d4;strokeColor=#82b366;startArrow=open;startFill=0;endFill=0;" parent="2" edge="1">
          <mxGeometry width="50" height="50" relative="1" as="geometry">
            <mxPoint x="245.63" y="210" as="sourcePoint" />
            <mxPoint x="245.63" y="250" as="targetPoint" />
          </mxGeometry>
        </mxCell>
        <mxCell id="14" value="retrieves&lt;br&gt;Order" style="edgeLabel;html=1;align=center;verticalAlign=middle;resizable=0;points=[];" parent="13" vertex="1" connectable="0">
          <mxGeometry x="0.0845" y="-2" relative="1" as="geometry">
            <mxPoint x="32" as="offset" />
          </mxGeometry>
        </mxCell>
        <mxCell id="18" value="Order Service" style="text;html=1;align=left;verticalAlign=middle;resizable=0;points=[];autosize=1;strokeColor=none;fillColor=none;" parent="2" vertex="1">
          <mxGeometry x="20" width="100" height="30" as="geometry" />
        </mxCell>
        <mxCell id="23" value="" style="rounded=0;orthogonalLoop=1;jettySize=auto;html=1;dashed=1;endArrow=open;endFill=0;fillColor=#d5e8d4;strokeColor=#82b366;entryX=0;entryY=0.5;entryDx=0;entryDy=0;" parent="2" edge="1">
          <mxGeometry relative="1" as="geometry">
            <mxPoint x="51.38" y="180" as="sourcePoint" />
            <mxPoint x="155.88" y="180" as="targetPoint" />
          </mxGeometry>
        </mxCell>
        <mxCell id="24" value="order.receive-validity" style="edgeLabel;html=1;align=center;verticalAlign=middle;resizable=0;points=[];" parent="23" connectable="0" vertex="1">
          <mxGeometry x="0.066" y="1" relative="1" as="geometry">
            <mxPoint x="-4" y="-9" as="offset" />
          </mxGeometry>
        </mxCell>
        <mxCell id="25" value="" style="rounded=0;orthogonalLoop=1;jettySize=auto;html=1;dashed=1;endArrow=none;endFill=0;fillColor=#d5e8d4;strokeColor=#82b366;entryX=0;entryY=0.5;entryDx=0;entryDy=0;startArrow=open;startFill=0;" parent="2" edge="1">
          <mxGeometry relative="1" as="geometry">
            <mxPoint x="51.38" y="200" as="sourcePoint" />
            <mxPoint x="155.88" y="200" as="targetPoint" />
          </mxGeometry>
        </mxCell>
        <mxCell id="26" value="articles.check-validity" style="edgeLabel;html=1;align=center;verticalAlign=middle;resizable=0;points=[];" parent="25" connectable="0" vertex="1">
          <mxGeometry x="0.066" y="1" relative="1" as="geometry">
            <mxPoint x="-4" y="-9" as="offset" />
          </mxGeometry>
        </mxCell>
        <mxCell id="29" value="" style="rounded=0;orthogonalLoop=1;jettySize=auto;html=1;dashed=1;endArrow=none;endFill=0;fillColor=#d5e8d4;strokeColor=#82b366;entryX=0;entryY=0.5;entryDx=0;entryDy=0;startArrow=open;startFill=0;" parent="2" edge="1">
          <mxGeometry relative="1" as="geometry">
            <mxPoint x="51.38" y="150" as="sourcePoint" />
            <mxPoint x="155.88" y="150" as="targetPoint" />
            <Array as="points">
              <mxPoint x="108.63" y="150.5" />
            </Array>
          </mxGeometry>
        </mxCell>
        <mxCell id="30" value="customer.validate" style="edgeLabel;html=1;align=center;verticalAlign=middle;resizable=0;points=[];" parent="29" connectable="0" vertex="1">
          <mxGeometry x="0.066" y="1" relative="1" as="geometry">
            <mxPoint x="-4" y="-9" as="offset" />
          </mxGeometry>
        </mxCell>
        <mxCell id="31" value="" style="rounded=0;orthogonalLoop=1;jettySize=auto;html=1;dashed=1;endArrow=none;endFill=0;fillColor=#d5e8d4;strokeColor=#82b366;entryX=0;entryY=0.5;entryDx=0;entryDy=0;startArrow=open;startFill=0;" parent="2" edge="1">
          <mxGeometry relative="1" as="geometry">
            <mxPoint x="51.38" y="240" as="sourcePoint" />
            <mxPoint x="155.88" y="240" as="targetPoint" />
          </mxGeometry>
        </mxCell>
        <mxCell id="32" value="logs.new" style="edgeLabel;html=1;align=center;verticalAlign=middle;resizable=0;points=[];" parent="31" connectable="0" vertex="1">
          <mxGeometry x="0.066" y="1" relative="1" as="geometry">
            <mxPoint x="-4" y="-9" as="offset" />
          </mxGeometry>
        </mxCell>
        <mxCell id="34" value="" style="rounded=0;orthogonalLoop=1;jettySize=auto;html=1;dashed=1;endArrow=none;endFill=0;fillColor=#d5e8d4;strokeColor=#82b366;startArrow=open;startFill=0;" parent="2" edge="1">
          <mxGeometry relative="1" as="geometry">
            <mxPoint x="308.63" y="180" as="sourcePoint" />
            <mxPoint x="398.63" y="180" as="targetPoint" />
          </mxGeometry>
        </mxCell>
        <mxCell id="35" value="order.update" style="edgeLabel;html=1;align=center;verticalAlign=middle;resizable=0;points=[];" parent="34" connectable="0" vertex="1">
          <mxGeometry x="0.066" y="1" relative="1" as="geometry">
            <mxPoint x="-4" y="-9" as="offset" />
          </mxGeometry>
        </mxCell>
        <mxCell id="36" value="" style="rounded=0;orthogonalLoop=1;jettySize=auto;html=1;dashed=1;endArrow=open;endFill=0;fillColor=#d5e8d4;strokeColor=#82b366;exitX=1;exitY=0.25;exitDx=0;exitDy=0;" parent="2" edge="1">
          <mxGeometry relative="1" as="geometry">
            <mxPoint x="308.6285714285715" y="139.99714285714276" as="sourcePoint" />
            <mxPoint x="398.19999999999993" y="140.14" as="targetPoint" />
          </mxGeometry>
        </mxCell>
        <mxCell id="37" value="store.order-ready" style="edgeLabel;html=1;align=center;verticalAlign=middle;resizable=0;points=[];" parent="36" connectable="0" vertex="1">
          <mxGeometry x="0.066" y="1" relative="1" as="geometry">
            <mxPoint x="-8" y="-9" as="offset" />
          </mxGeometry>
        </mxCell>
        <mxCell id="38" value="" style="rounded=0;orthogonalLoop=1;jettySize=auto;html=1;dashed=1;endArrow=open;endFill=0;fillColor=#d5e8d4;strokeColor=#82b366;exitX=1;exitY=0.25;exitDx=0;exitDy=0;" parent="2" edge="1">
          <mxGeometry relative="1" as="geometry">
            <mxPoint x="308.6285714285715" y="159.49714285714276" as="sourcePoint" />
            <mxPoint x="398.19999999999993" y="159.64" as="targetPoint" />
          </mxGeometry>
        </mxCell>
        <mxCell id="39" value="store.order-cancelled" style="edgeLabel;html=1;align=center;verticalAlign=middle;resizable=0;points=[];" parent="38" connectable="0" vertex="1">
          <mxGeometry x="0.066" y="1" relative="1" as="geometry">
            <mxPoint x="-8" y="-9" as="offset" />
          </mxGeometry>
        </mxCell>
        <mxCell id="40" value="" style="rounded=0;orthogonalLoop=1;jettySize=auto;html=1;dashed=1;endArrow=open;endFill=0;fillColor=#d5e8d4;strokeColor=#82b366;exitX=1;exitY=0.25;exitDx=0;exitDy=0;" parent="2" edge="1">
          <mxGeometry relative="1" as="geometry">
            <mxPoint x="308.6285714285715" y="219.99714285714276" as="sourcePoint" />
            <mxPoint x="398.19999999999993" y="220.14" as="targetPoint" />
          </mxGeometry>
        </mxCell>
        <mxCell id="41" value="invoice.create" style="edgeLabel;html=1;align=center;verticalAlign=middle;resizable=0;points=[];" parent="40" connectable="0" vertex="1">
          <mxGeometry x="0.066" y="1" relative="1" as="geometry">
            <mxPoint x="-8" y="-9" as="offset" />
          </mxGeometry>
        </mxCell>
        <mxCell id="42" value="Database" style="shape=cylinder3;whiteSpace=wrap;html=1;boundedLbl=1;backgroundOutline=1;size=15;fillColor=#d5e8d4;strokeColor=#82b366;" vertex="1" parent="1">
          <mxGeometry x="450.5" y="820" width="81" height="80" as="geometry" />
        </mxCell>
        <mxCell id="43" value="Java Application" style="shape=hexagon;perimeter=hexagonPerimeter2;whiteSpace=wrap;html=1;fixedSize=1;fillColor=#d5e8d4;strokeColor=#82b366;" vertex="1" parent="1">
          <mxGeometry x="540" y="820" width="120" height="80" as="geometry" />
        </mxCell>
        <mxCell id="44" value="Legend" style="text;html=1;align=center;verticalAlign=middle;resizable=0;points=[];autosize=1;strokeColor=none;fillColor=none;fontSize=16;" vertex="1" parent="1">
          <mxGeometry x="330" y="779" width="80" height="30" as="geometry" />
        </mxCell>
        <mxCell id="46" value="" style="rounded=0;orthogonalLoop=1;jettySize=auto;html=1;dashed=1;endArrow=open;endFill=0;fillColor=#d5e8d4;strokeColor=#82b366;exitX=1;exitY=0.25;exitDx=0;exitDy=0;" edge="1" parent="1">
          <mxGeometry relative="1" as="geometry">
            <mxPoint x="340" y="840" as="sourcePoint" />
            <mxPoint x="430" y="840" as="targetPoint" />
          </mxGeometry>
        </mxCell>
        <mxCell id="47" value="Bus Message async" style="edgeLabel;html=1;align=center;verticalAlign=middle;resizable=0;points=[];" connectable="0" vertex="1" parent="46">
          <mxGeometry x="0.066" y="1" relative="1" as="geometry">
            <mxPoint y="-11" as="offset" />
          </mxGeometry>
        </mxCell>
        <mxCell id="48" value="" style="endArrow=none;html=1;rounded=0;fillColor=#d5e8d4;strokeColor=#82b366;startArrow=open;startFill=0;endFill=0;" edge="1" parent="1">
          <mxGeometry width="50" height="50" relative="1" as="geometry">
            <mxPoint x="430" y="885.34" as="sourcePoint" />
            <mxPoint x="340" y="885.34" as="targetPoint" />
          </mxGeometry>
        </mxCell>
        <mxCell id="49" value="Relation" style="edgeLabel;html=1;align=center;verticalAlign=middle;resizable=0;points=[];" vertex="1" connectable="0" parent="48">
          <mxGeometry x="0.0845" y="-2" relative="1" as="geometry">
            <mxPoint x="-21" y="-8" as="offset" />
          </mxGeometry>
        </mxCell>
        <mxCell id="50" value="" style="rounded=0;orthogonalLoop=1;jettySize=auto;html=1;dashed=1;endArrow=classic;endFill=1;fillColor=#d5e8d4;strokeColor=#82b366;exitX=1;exitY=0.25;exitDx=0;exitDy=0;" edge="1" parent="1">
          <mxGeometry relative="1" as="geometry">
            <mxPoint x="340" y="865.34" as="sourcePoint" />
            <mxPoint x="430" y="865.34" as="targetPoint" />
          </mxGeometry>
        </mxCell>
        <mxCell id="51" value="Bus Message sync" style="edgeLabel;html=1;align=center;verticalAlign=middle;resizable=0;points=[];" connectable="0" vertex="1" parent="50">
          <mxGeometry x="0.066" y="1" relative="1" as="geometry">
            <mxPoint x="-3" y="-14" as="offset" />
          </mxGeometry>
        </mxCell>
      </root>
    </mxGraphModel>
  </diagram>
</mxfile>
